<svg width="785.1687499999999px" height="215.6px" xmlns="http://www.w3.org/2000/svg" viewBox="-142.58437499999997 -32.8 785.1687499999999 215.6" style="background: rgba(0, 0, 0, 0);" preserveAspectRatio="xMidYMid"><defs><filter id="editing-hole" x="-100%" y="-100%" width="300%" height="300%"><feFlood flood-color="#000000" result="black"></feFlood><feMorphology operator="dilate" radius="2" in="SourceGraphic" result="erode"></feMorphology><feGaussianBlur in="erode" stdDeviation="4" result="blur"></feGaussianBlur><feOffset in="blur" dx="2" dy="2" result="offset"></feOffset><feComposite operator="atop" in="offset" in2="black" result="merge"></feComposite><feComposite operator="in" in="merge" in2="SourceGraphic" result="inner-shadow"></feComposite></filter></defs><g filter="url(#editing-hole)"><g transform="translate(-32.63001346588135, 116.95000219345093)"><path d="M31.52-69.79L31.52-69.79L31.52-69.79Q19.80-62.93 19.80-40.43L19.80-40.43L19.80-40.43Q19.80-17.87 33.40-11.43L33.40-11.43L33.40-11.43Q37.62-9.43 44.59-9.43L44.59-9.43L44.59-9.43Q51.56-9.43 61.58-15.23L61.58-15.23L61.58-15.23Q64.28-16.82 66.09-16.82L66.09-16.82L66.09-16.82Q68.50-16.82 68.50-13.65L68.50-13.65L68.50-13.65Q68.50-11.95 66.45-9.11L66.45-9.11L66.45-9.11Q64.39-6.27 60.88-4.22L60.88-4.22L60.88-4.22Q52.62 0.59 41.89 0.59L41.89 0.59L40.02 0.59L40.02 0.59Q32.46 0.59 25.78-2.29L25.78-2.29L25.78-2.29Q12.83-7.85 8.14-23.32L8.14-23.32L8.14-23.32Q6.04-30.35 6.04-38.14L6.04-38.14L6.04-40.08L6.04-40.08Q6.04-48.52 8.50-56.72L8.50-56.72L8.50-56.72Q13.30-72.66 27.19-79.28L27.19-79.28L27.19-79.28Q34.57-82.73 44.41-82.73L44.41-82.73L44.41-82.73Q60.29-82.73 64.80-75.18L64.80-75.18L64.80-75.18Q66.68-72.01 66.68-69.61L66.68-69.61L66.68-69.61Q66.68-64.51 63.11-64.51L63.11-64.51L63.11-64.51Q61.99-64.51 58.07-67.21L58.07-67.21L58.07-67.21Q54.14-69.90 50.19-71.22L50.19-71.22L50.19-71.22Q46.23-72.54 41.25-72.54L41.25-72.54L41.25-72.54Q36.27-72.54 31.52-69.79ZM108.34 0.64L108.34 0.64L108.34 0.64Q102.95 0.64 96.45-0.73L96.45-0.73L96.45-0.73Q89.94-2.11 87.30-3.66L87.30-3.66L87.30-3.66Q84.67-5.21 83.17-8.06L83.17-8.06L83.17-8.06Q81.68-10.90 81.68-13.51L81.68-13.51L81.68-13.51Q81.68-16.11 82.91-17.55L82.91-17.55L82.91-17.55Q84.14-18.98 85.61-18.98L85.61-18.98L85.61-18.98Q87.07-18.98 91.08-15.64L91.08-15.64L91.08-15.64Q95.10-12.30 99.11-10.61L99.11-10.61L99.11-10.61Q103.13-8.91 109.10-8.91L109.10-8.91L109.10-8.91Q115.08-8.91 118.83-12.07L118.83-12.07L118.83-12.07Q122.58-15.23 122.58-21.04L122.58-21.04L122.58-21.04Q122.58-26.84 115.78-31.52L115.78-31.52L115.78-31.52Q113.91-32.81 103.36-37.82L103.36-37.82L103.36-37.82Q92.81-42.83 89.41-46.38L89.41-46.38L89.41-46.38Q86.02-49.92 84.52-53.58L84.52-53.58L84.52-53.58Q83.03-57.25 83.03-62.34L83.03-62.34L83.03-62.34Q83.03-71.60 90.82-77.70L90.82-77.70L90.82-77.70Q97.79-83.26 111.74-83.26L111.74-83.26L111.74-83.26Q120.29-83.26 126.09-80.74L126.09-80.74L126.09-80.74Q128.73-79.57 130.52-76.79L130.52-76.79L130.52-76.79Q132.30-74.00 132.30-71.60L132.30-71.60L132.30-71.60Q132.30-65.98 128.61-65.98L128.61-65.98L128.61-65.98Q127.56-65.98 121.41-70.02L121.41-70.02L121.41-70.02Q115.25-74.06 109.07-74.06L109.07-74.06L109.07-74.06Q102.89-74.06 99.11-71.16L99.11-71.16L99.11-71.16Q95.33-68.26 95.33-63.16L95.33-63.16L95.33-63.16Q95.33-58.07 100.31-54.08L100.31-54.08L100.31-54.08Q103.01-51.91 113.96-46.96L113.96-46.96L113.96-46.96Q124.92-42.01 128.94-38.00L128.94-38.00L128.94-38.00Q132.95-33.98 134.27-30.32L134.27-30.32L134.27-30.32Q135.59-26.66 135.59-21.86L135.59-21.86L135.59-21.86Q135.59-17.05 133.54-12.83L133.54-12.83L133.54-12.83Q129.43-4.22 118.95-0.94L118.95-0.94L118.95-0.94Q113.96 0.64 108.75 0.64L108.75 0.64L108.75 0.64Q108.52 0.64 108.34 0.64ZM198.52-56.66L198.52-51.80L198.52-51.80Q198.52-48.28 199.63-47.52L199.63-47.52L199.63-47.52Q200.74-46.76 204.20-46.76L204.20-46.76L205.61-46.76L206.07-46.82L207.95-46.88L210.82-47.11L210.82-47.11Q216.56-47.11 221.13-51.68L221.13-51.68L221.13-51.68Q224.47-55.02 224.47-61.00L224.47-61.00L224.47-62.11L224.47-62.11Q224.47-68.38 220.25-71.54L220.25-71.54L220.25-71.54Q216.04-74.71 208.83-74.71L208.83-74.71L206.43-74.71L206.43-74.71Q200.33-74.71 199.45-73.07L199.45-73.07L199.45-73.07Q198.57-71.43 198.57-59.65L198.57-59.65L198.57-58.65L198.52-56.66ZM198.46-17.05L198.52-14.88L198.52-14.88Q198.52-14.88 198.63-11.54L198.63-11.54L198.63-11.54Q198.63-8.50 206.43-8.50L206.43-8.50L210.94-8.50L210.94-8.50Q219.43-8.50 224.15-12.51L224.15-12.51L224.15-12.51Q228.87-16.52 228.87-23.03L228.87-23.03L228.87-25.43L228.87-25.43Q228.87-32.23 224.00-36.04L224.00-36.04L224.00-36.04Q219.14-39.84 211.64-39.84L211.64-39.84L206.13-39.84L206.13-39.84Q201.68-39.84 200.19-38.96L200.19-38.96L200.19-38.96Q198.69-38.09 198.69-35.27L198.69-35.27L198.69-35.27Q198.46-33.16 198.46-32.34L198.46-32.34L198.46-30.94L198.40-29.30L198.40-17.58L198.46-17.05ZM210.18-82.38L210.18-82.38Q223.24-82.38 229.95-77.20L229.95-77.20L229.95-77.20Q236.66-72.01 236.66-62.90L236.66-62.90L236.66-62.90Q236.66-53.79 230.45-47.75L230.45-47.75L230.45-47.75Q227.11-44.53 227.11-44.27L227.11-44.27L227.11-44.27Q227.11-44.00 228.52-43.18L228.52-43.18L229.63-42.60L229.63-42.60Q235.08-39.79 238.30-35.07L238.30-35.07L238.30-35.07Q241.52-30.35 241.52-24.02L241.52-24.02L241.52-22.56L241.52-22.56Q241.46-16.76 238.77-12.19L238.77-12.19L238.77-12.19Q233.73-3.69 222.07-1.11L222.07-1.11L222.07-1.11Q216.15 0.18 207.83 0.18L207.83 0.18L202.27 0.18L200.86 0.12L200.86 0.12Q189.14 0.12 186.15-0.64L186.15-0.64L186.15-0.64Q183.28-1.41 183.28-3.98L183.28-3.98L183.28-3.98Q183.28-4.80 184.51-7.97L184.51-7.97L184.51-7.97Q185.74-11.13 185.74-20.98L185.74-20.98L185.74-60.18L185.74-60.18Q185.74-69.96 184.42-73.62L184.42-73.62L184.42-73.62Q183.11-77.29 183.11-77.64L183.11-77.64L183.11-78.52L183.11-78.52Q183.11-80.45 185.89-81.24L185.89-81.24L185.89-81.24Q188.67-82.03 196.11-82.03L196.11-82.03L197.52-82.09L197.52-82.09Q198.93-82.15 200.27-82.15L200.27-82.15L203.09-82.27L210.18-82.38ZM264.79-80.68L264.79-80.68L264.79-80.68Q272.46-80.68 272.46-74.47L272.46-74.47L272.34-73.07L271.93-69.96L271.93-69.96Q271.70-67.27 271.70-62.34L271.70-62.34L271.70-50.27L271.70-50.27Q271.70-24.84 273.98-19.34L273.98-19.34L273.98-19.34Q278.32-8.91 289.98-8.85L289.98-8.85L289.98-8.85Q296.54-8.85 300.62-12.33L300.62-12.33L300.62-12.33Q304.69-15.82 306.45-20.92L306.45-20.92L306.45-20.92Q309.08-28.48 309.08-57.30L309.08-57.30L309.08-57.30Q309.08-67.85 308.64-71.81L308.64-71.81L308.64-71.81Q308.20-75.76 308.20-76.88L308.20-76.88L308.20-76.88Q308.20-81.04 314.24-81.04L314.24-81.04L316.00-81.04L316.00-81.04Q318.81-81.04 320.27-79.16L320.27-79.16L320.27-79.16Q322.79-75.94 322.79-73.30L322.79-73.30L322.79-71.43L322.79-71.43Q322.79-70.14 321.47-66.39L321.47-66.39L321.47-66.39Q320.16-62.64 319.95-59.15L319.95-59.15L319.95-59.15Q319.75-55.66 319.75-41.13L319.75-41.13L319.75-41.13Q319.75-40.37 319.75-39.61L319.75-39.61L319.75-39.61Q319.75-26.31 318.75-20.80L318.75-20.80L318.75-20.80Q317.70-15 314.06-10.08L314.06-10.08L314.06-10.08Q306.74-0.23 287.87-0.23L287.87-0.23L287.87-0.23Q263.38-0.23 259.86-22.97L259.86-22.97L259.86-22.97Q258.98-28.65 258.98-39.87L258.98-39.87L258.98-39.87Q258.98-51.09 258.72-57.28L258.72-57.28L258.72-57.28Q258.46-63.46 257.02-67.27L257.02-67.27L257.02-67.27Q255.59-71.07 255.59-72.77L255.59-72.77L255.59-72.77Q255.59-76.70 258.63-79.34L258.63-79.34L258.63-79.34Q260.21-80.68 264.79-80.68ZM389.94-39.61L389.94-39.61L389.94-43.65L389.94-43.65Q389.94-50.51 388.07-56.48L388.07-56.48L388.07-56.48Q382.50-74.36 365.33-74.36L365.33-74.36L365.21-74.36L362.64-74.36L362.64-74.36Q355.55-74.36 354.67-71.31L354.67-71.31L354.67-71.31Q354.20-69.73 354.20-54.43L354.20-54.43L354.20-33.98L354.14-30.29L354.14-21.21L354.20-20.27L354.26-17.64L354.38-14.06L354.38-14.06Q354.38-11.19 356.25-9.96L356.25-9.96L356.25-9.96Q358.13-8.73 363.75-8.73L363.75-8.73L364.63-8.79L364.63-8.79Q381.86-8.79 387.48-24.90L387.48-24.90L387.48-24.90Q389.94-32.05 389.94-39.61ZM341.84-60.53L341.78-61.82L341.78-61.82Q341.72-63.11 341.72-66.36L341.72-66.36L341.72-66.36Q341.72-69.61 340.22-73.27L340.22-73.27L340.22-73.27Q338.73-76.93 338.73-77.40L338.73-77.40L338.73-78.34L338.73-78.34Q338.73-80.51 342.42-81.15L342.42-81.15L342.42-81.15Q349.63-82.44 361.64-82.44L361.64-82.44L365.80-82.44L365.80-82.44Q383.85-82.44 393.98-72.30L393.98-72.30L393.98-72.30Q399.08-67.21 401.72-59.47L401.72-59.47L401.72-59.47Q404.36-51.74 404.36-43.13L404.36-43.13L404.30-41.66L404.30-41.66Q404.24-31.88 401.19-23.67L401.19-23.67L401.19-23.67Q395.16-7.56 379.04-2.29L379.04-2.29L379.04-2.29Q372.19-0.06 361.70-0.06L361.70-0.06L359.00-0.06L359.00-0.06Q348.34-0.06 342.48-1.11L342.48-1.11L342.48-1.11Q338.96-1.76 338.96-3.93L338.96-3.93L338.96-3.93Q338.96-5.27 340.31-8.32L340.31-8.32L340.31-8.32Q341.66-11.37 341.89-14.91L341.89-14.91L341.89-14.91Q342.13-18.46 342.13-38.96L342.13-38.96L342.07-41.72L342.07-49.86L341.84-60.53ZM471.15-39.61L471.15-39.61L471.15-43.65L471.15-43.65Q471.15-50.51 469.28-56.48L469.28-56.48L469.28-56.48Q463.71-74.36 446.54-74.36L446.54-74.36L446.43-74.36L443.85-74.36L443.85-74.36Q436.76-74.36 435.88-71.31L435.88-71.31L435.88-71.31Q435.41-69.73 435.41-54.43L435.41-54.43L435.41-33.98L435.35-30.29L435.35-21.21L435.41-20.27L435.47-17.64L435.59-14.06L435.59-14.06Q435.59-11.19 437.46-9.96L437.46-9.96L437.46-9.96Q439.34-8.73 444.96-8.73L444.96-8.73L445.84-8.79L445.84-8.79Q463.07-8.79 468.69-24.90L468.69-24.90L468.69-24.90Q471.15-32.05 471.15-39.61ZM423.05-60.53L422.99-61.82L422.99-61.82Q422.93-63.11 422.93-66.36L422.93-66.36L422.93-66.36Q422.93-69.61 421.44-73.27L421.44-73.27L421.44-73.27Q419.94-76.93 419.94-77.40L419.94-77.40L419.94-78.34L419.94-78.34Q419.94-80.51 423.63-81.15L423.63-81.15L423.63-81.15Q430.84-82.44 442.85-82.44L442.85-82.44L447.01-82.44L447.01-82.44Q465.06-82.44 475.20-72.30L475.20-72.30L475.20-72.30Q480.29-67.21 482.93-59.47L482.93-59.47L482.93-59.47Q485.57-51.74 485.57-43.13L485.57-43.13L485.51-41.66L485.51-41.66Q485.45-31.88 482.40-23.67L482.40-23.67L482.40-23.67Q476.37-7.56 460.25-2.29L460.25-2.29L460.25-2.29Q453.40-0.06 442.91-0.06L442.91-0.06L440.21-0.06L440.21-0.06Q429.55-0.06 423.69-1.11L423.69-1.11L423.69-1.11Q420.18-1.76 420.18-3.93L420.18-3.93L420.18-3.93Q420.18-5.27 421.52-8.32L421.52-8.32L421.52-8.32Q422.87-11.37 423.11-14.91L423.11-14.91L423.11-14.91Q423.34-18.46 423.34-38.96L423.34-38.96L423.28-41.72L423.28-49.86L423.05-60.53ZM543.87-78.16L543.87-78.16Q546.33-81.97 552.77-81.97L552.77-81.97L552.77-81.97Q559.22-81.97 559.22-78.81L559.22-78.81L559.22-78.81Q559.22-76.99 555.82-72.19L555.82-72.19L555.82-72.19Q552.42-67.38 548.73-59.82L548.73-59.82L548.73-59.82Q537.48-36.91 537.19-36.15L537.19-36.15L537.19-36.15Q532.97-25.61 532.97-13.95L532.97-13.95L532.97-13.95Q532.97-12.19 533.79-9.23L533.79-9.23L533.79-9.23Q534.61-6.27 534.61-5.45L534.61-5.45L534.61-5.45Q534.61-2.58 532.27-1.00L532.27-1.00L532.27-1.00Q529.92 0.59 525.62 0.59L525.62 0.59L525.62 0.59Q521.31 0.59 519.26-0.91L519.26-0.91L519.26-0.91Q517.21-2.40 517.21-5.68L517.21-5.68L517.21-5.68Q517.21-6.74 518.35-9.73L518.35-9.73L518.35-9.73Q519.49-12.71 520.22-15.26L520.22-15.26L520.22-15.26Q520.96-17.81 520.96-24.43L520.96-24.43L520.96-24.43Q520.96-31.05 517.50-38.26L517.50-38.26L517.50-38.26Q516.97-39.32 509.68-52.82L509.68-52.82L509.68-52.82Q502.38-66.33 500.63-68.67L500.63-68.67L500.63-68.67Q495-76.05 495-77.70L495-77.70L495-77.70Q495-80.68 502.65-80.68L502.65-80.68L502.65-80.68Q510.29-80.68 512.58-76.82L512.58-76.82L512.58-76.82Q513.05-76.00 513.75-72.92L513.75-72.92L513.75-72.92Q514.45-69.84 520.55-57.71L520.55-57.71L520.55-57.71Q526.64-45.59 527.93-45.59L527.93-45.59L527.93-45.59Q530.33-45.59 538.71-62.70L538.71-62.70L538.71-62.70Q541.11-67.62 542.23-72.48L542.23-72.48L542.23-72.48Q543.34-77.34 543.87-78.16L543.87-78.16Z" fill="#ffffff"></path></g></g><style>text {
  font-size: 64px;
  font-family: Arial Black;
  dominant-baseline: central;
  text-anchor: middle;
}</style></svg>