<svg width="212.525px" height="215.6px" xmlns="http://www.w3.org/2000/svg" viewBox="143.7375 -32.8 212.525 215.6" style="background: rgba(0, 0, 0, 0);" preserveAspectRatio="xMidYMid"><defs><filter id="editing-hole" x="-100%" y="-100%" width="300%" height="300%"><feFlood flood-color="#000000" result="black"></feFlood><feMorphology operator="dilate" radius="2" in="SourceGraphic" result="erode"></feMorphology><feGaussianBlur in="erode" stdDeviation="4" result="blur"></feGaussianBlur><feOffset in="blur" dx="2" dy="2" result="offset"></feOffset><feComposite operator="atop" in="offset" in2="black" result="merge"></feComposite><feComposite operator="in" in="merge" in2="SourceGraphic" result="inner-shadow"></feComposite></filter></defs><g filter="url(#editing-hole)"><g transform="translate(179.18501377105713, 116.95000219345093)"><path d="M31.52-69.79L31.52-69.79L31.52-69.79Q19.80-62.93 19.80-40.43L19.80-40.43L19.80-40.43Q19.80-17.87 33.40-11.43L33.40-11.43L33.40-11.43Q37.62-9.43 44.59-9.43L44.59-9.43L44.59-9.43Q51.56-9.43 61.58-15.23L61.58-15.23L61.58-15.23Q64.28-16.82 66.09-16.82L66.09-16.82L66.09-16.82Q68.50-16.82 68.50-13.65L68.50-13.65L68.50-13.65Q68.50-11.95 66.45-9.11L66.45-9.11L66.45-9.11Q64.39-6.27 60.88-4.22L60.88-4.22L60.88-4.22Q52.62 0.59 41.89 0.59L41.89 0.59L40.02 0.59L40.02 0.59Q32.46 0.59 25.78-2.29L25.78-2.29L25.78-2.29Q12.83-7.85 8.14-23.32L8.14-23.32L8.14-23.32Q6.04-30.35 6.04-38.14L6.04-38.14L6.04-40.08L6.04-40.08Q6.04-48.52 8.50-56.72L8.50-56.72L8.50-56.72Q13.30-72.66 27.19-79.28L27.19-79.28L27.19-79.28Q34.57-82.73 44.41-82.73L44.41-82.73L44.41-82.73Q60.29-82.73 64.80-75.18L64.80-75.18L64.80-75.18Q66.68-72.01 66.68-69.61L66.68-69.61L66.68-69.61Q66.68-64.51 63.11-64.51L63.11-64.51L63.11-64.51Q61.99-64.51 58.07-67.21L58.07-67.21L58.07-67.21Q54.14-69.90 50.19-71.22L50.19-71.22L50.19-71.22Q46.23-72.54 41.25-72.54L41.25-72.54L41.25-72.54Q36.27-72.54 31.52-69.79ZM108.34 0.64L108.34 0.64L108.34 0.64Q102.95 0.64 96.45-0.73L96.45-0.73L96.45-0.73Q89.94-2.11 87.30-3.66L87.30-3.66L87.30-3.66Q84.67-5.21 83.17-8.06L83.17-8.06L83.17-8.06Q81.68-10.90 81.68-13.51L81.68-13.51L81.68-13.51Q81.68-16.11 82.91-17.55L82.91-17.55L82.91-17.55Q84.14-18.98 85.61-18.98L85.61-18.98L85.61-18.98Q87.07-18.98 91.08-15.64L91.08-15.64L91.08-15.64Q95.10-12.30 99.11-10.61L99.11-10.61L99.11-10.61Q103.13-8.91 109.10-8.91L109.10-8.91L109.10-8.91Q115.08-8.91 118.83-12.07L118.83-12.07L118.83-12.07Q122.58-15.23 122.58-21.04L122.58-21.04L122.58-21.04Q122.58-26.84 115.78-31.52L115.78-31.52L115.78-31.52Q113.91-32.81 103.36-37.82L103.36-37.82L103.36-37.82Q92.81-42.83 89.41-46.38L89.41-46.38L89.41-46.38Q86.02-49.92 84.52-53.58L84.52-53.58L84.52-53.58Q83.03-57.25 83.03-62.34L83.03-62.34L83.03-62.34Q83.03-71.60 90.82-77.70L90.82-77.70L90.82-77.70Q97.79-83.26 111.74-83.26L111.74-83.26L111.74-83.26Q120.29-83.26 126.09-80.74L126.09-80.74L126.09-80.74Q128.73-79.57 130.52-76.79L130.52-76.79L130.52-76.79Q132.30-74.00 132.30-71.60L132.30-71.60L132.30-71.60Q132.30-65.98 128.61-65.98L128.61-65.98L128.61-65.98Q127.56-65.98 121.41-70.02L121.41-70.02L121.41-70.02Q115.25-74.06 109.07-74.06L109.07-74.06L109.07-74.06Q102.89-74.06 99.11-71.16L99.11-71.16L99.11-71.16Q95.33-68.26 95.33-63.16L95.33-63.16L95.33-63.16Q95.33-58.07 100.31-54.08L100.31-54.08L100.31-54.08Q103.01-51.91 113.96-46.96L113.96-46.96L113.96-46.96Q124.92-42.01 128.94-38.00L128.94-38.00L128.94-38.00Q132.95-33.98 134.27-30.32L134.27-30.32L134.27-30.32Q135.59-26.66 135.59-21.86L135.59-21.86L135.59-21.86Q135.59-17.05 133.54-12.83L133.54-12.83L133.54-12.83Q129.43-4.22 118.95-0.94L118.95-0.94L118.95-0.94Q113.96 0.64 108.75 0.64L108.75 0.64L108.75 0.64Q108.52 0.64 108.34 0.64Z" fill="#ffffff"></path></g></g><style>text {
  font-size: 64px;
  font-family: Arial Black;
  dominant-baseline: central;
  text-anchor: middle;
}</style></svg>